# xmcd
#
# Track frame offsets: 
#        150
#        10330
#        21150
#        27202
#        36926
#        45506
#        54379
#        66233
#        75554
#        86347
#        94143
#        104301
#
# Disc length: 1522 seconds
#
# Revision: 0
# Processed by: cddbd v1.5.2PL0 Copyright (c) Steve Scherf et al.
# Submitted via: ExactAudioCopyFreeDBPlugin 1.0
#
DISCID=8a05f00c
DTITLE=Johnny Cash - The Original Sun Albums 1957 - 1964 CD3
DYEAR=2017
DGENRE=Country
TTITLE0=Goodby Little Darlin'
TTITLE1=I Just Thought You'd Like To Know
TTITLE2=You Tell Me
TTITLE3=It's Just About Time
TTITLE4=I Forgot To Remember To Forget
TTITLE5=Katy, Too
TTITLE6=Thanks A Lot
TTITLE7=Luther Played The Boogie
TTITLE8=You Win Again
TTITLE9=Hey Good Lookin'
TTITLE10=I Could Never Be Ashamed Of You
TTITLE11=Get Rhythm
EXTD=
EXTT0=
EXTT1=
EXTT2=
EXTT3=
EXTT4=
EXTT5=
EXTT6=
EXTT7=
EXTT8=
EXTT9=
EXTT10=
EXTT11=
PLAYORDER=
